<?xml version="1.0" encoding="utf-8"?>
<!-- Generator: Adobe Illustrator 27.9.0, SVG Export Plug-In . SVG Version: 6.00 Build 0)  -->
<svg version="1.1" id="Layer_1" xmlns="http://www.w3.org/2000/svg" xmlns:xlink="http://www.w3.org/1999/xlink" x="0px" y="0px"
	 viewBox="0 0 150 150" style="enable-background:new 0 0 150 150;" xml:space="preserve">
<style type="text/css">
	.st0{fill:#E6E6E6;}
</style>
<g>
	<path class="st0" d="M110.7,50.9l19-19c21.6,27.3,19.7,67.1-5.5,92.3s-65,27-92.3,5.5l19-19c16.7,11.3,39.7,9.6,54.5-5.3
		S122,67.7,110.7,50.9L110.7,50.9z"/>
	<path class="st0" d="M50.9,110.7c-2.2-1.5-4.4-3.3-6.4-5.3s-3.7-4.1-5.3-6.4L59,79.2l11.6,11.6C70.7,90.9,50.9,110.7,50.9,110.7z"
		/>
	<path class="st0" d="M99,39.3c2.2,1.5,4.4,3.3,6.4,5.3s3.7,4.1,5.3,6.4L90.9,70.8L79.3,59.1L99,39.3z"/>
	<path class="st0" d="M25.8,25.8c25.2-25.2,65-27,92.3-5.5l-19,19C82.3,28,59.4,29.8,44.6,44.6S28,82.3,39.3,99.1l-19,19
		C-1.2,90.8,0.6,51,25.8,25.8z"/>
</g>
</svg>
